<?xml version="1.0" encoding="UTF-8" standalone="no"?>

<svg width="430" height="115" viewBox="0 0 113.77082 30.42708" version="1.1" id="svg1"
   xmlns="http://www.w3.org/2000/svg">
   <defs id="defs1">
      <mask maskUnits="userSpaceOnUse" id="mask26">
         <path id="path27" style="fill:#d4a100;fill-opacity:1;stroke-width:10.5833" d="m 94.902025,225.63847 c 30.442315,9.90222 34.545675,-2.78338 51.750575,-4.23333 8.67321,-0.73094 15.71111,7.00716 15.71111,15.71112 0,8.70396 -10.7865,22.88796 -15.71111,15.71111 -9.40341,-13.704 -34.50039,2.82222 -51.750575,4.23333 -8.674983,0.70964 -15.711114,-7.00715 -15.711114,-15.71111 0,-8.70396 7.434032,-18.40347 15.711114,-15.71112 z" />
      </mask>
      <mask maskUnits="userSpaceOnUse" id="mask26-5">
         <path id="path27-6" style="fill:#d4a100;fill-opacity:1;stroke-width:10.5833" d="m 94.902025,225.63847 c 30.442315,9.90222 34.545675,-2.78338 51.750575,-4.23333 8.67321,-0.73094 15.71111,7.00716 15.71111,15.71112 0,8.70396 -10.7865,22.88796 -15.71111,15.71111 -9.40341,-13.704 -34.50039,2.82222 -51.750575,4.23333 -8.674983,0.70964 -15.711114,-7.00715 -15.711114,-15.71111 0,-8.70396 7.434032,-18.40347 15.711114,-15.71112 z" />
      </mask>
      <mask maskUnits="userSpaceOnUse" id="mask26-2">
         <path id="path27-7" style="fill:#d4a100;fill-opacity:1;stroke-width:10.5833" d="m 94.902025,225.63847 c 30.442315,9.90222 34.545675,-2.78338 51.750575,-4.23333 8.67321,-0.73094 15.71111,7.00716 15.71111,15.71112 0,8.70396 -10.7865,22.88796 -15.71111,15.71111 -9.40341,-13.704 -34.50039,2.82222 -51.750575,4.23333 -8.674983,0.70964 -15.711114,-7.00715 -15.711114,-15.71111 0,-8.70396 7.434032,-18.40347 15.711114,-15.71112 z" />
      </mask>
      <mask maskUnits="userSpaceOnUse" id="mask26-8">
         <path id="path27-79" style="fill:#d4a100;fill-opacity:1;stroke-width:10.5833" d="m 94.902025,225.63847 c 30.442315,9.90222 34.545675,-2.78338 51.750575,-4.23333 8.67321,-0.73094 15.71111,7.00716 15.71111,15.71112 0,8.70396 -10.7865,22.88796 -15.71111,15.71111 -9.40341,-13.704 -34.50039,2.82222 -51.750575,4.23333 -8.674983,0.70964 -15.711114,-7.00715 -15.711114,-15.71111 0,-8.70396 7.434032,-18.40347 15.711114,-15.71112 z" />
      </mask>
      <mask maskUnits="userSpaceOnUse" id="mask26-4">
         <path id="path27-78" style="fill:#d4a100;fill-opacity:1;stroke-width:10.5833" d="m 94.902025,225.63847 c 30.442315,9.90222 34.545675,-2.78338 51.750575,-4.23333 8.67321,-0.73094 15.71111,7.00716 15.71111,15.71112 0,8.70396 -10.7865,22.88796 -15.71111,15.71111 -9.40341,-13.704 -34.50039,2.82222 -51.750575,4.23333 -8.674983,0.70964 -15.711114,-7.00715 -15.711114,-15.71111 0,-8.70396 7.434032,-18.40347 15.711114,-15.71112 z" />
      </mask>
      <mask maskUnits="userSpaceOnUse" id="mask26-0">
         <path id="path27-61" style="fill:#d4a100;fill-opacity:1;stroke-width:10.5833" d="m 94.902025,225.63847 c 30.442315,9.90222 34.545675,-2.78338 51.750575,-4.23333 8.67321,-0.73094 15.71111,7.00716 15.71111,15.71112 0,8.70396 -10.7865,22.88796 -15.71111,15.71111 -9.40341,-13.704 -34.50039,2.82222 -51.750575,4.23333 -8.674983,0.70964 -15.711114,-7.00715 -15.711114,-15.71111 0,-8.70396 7.434032,-18.40347 15.711114,-15.71112 z" />
      </mask>
   </defs>
   <g id="layer1">
      <g id="g4">
         <rect style="fill:#33302d;fill-opacity:1;stroke-width:4.24311" id="rect55" width="113.77084" height="30.427084" x="-8.0273435e-07" y="-1.0095131e-07" ry="0" />
         <g id="g3">
            <g id="g2" transform="matrix(1.1188874,0,0,1.1188867,7.5757917,-103.08296)">
               <g id="g56" transform="translate(-54.866226,-118.34532)" style="fill:#ffd42a;fill-opacity:1">
                  <circle style="fill:#ffd42a;fill-opacity:1;stroke-width:10.5833" id="circle55" cx="139.92384" cy="224.59695" r="6.0495443" />
                  <path style="font-size:25.4px;line-height:1.25;font-family:'URW Gothic';fill:#ffd42a;fill-opacity:1;stroke-width:0.264583" d="m 92.246605,233.82106 h 1.8796 v -8.8138 h 9.728195 v 8.8138 h 1.8796 v -18.7706 h -1.8796 v 8.255 h -9.728195 v -8.255 h -1.8796 z m 17.729145,0 h 1.8796 v -18.7706 h -1.8796 z m 5.7404,0 h 1.8796 v -7.5946 h 3.6068 c 2.54,0 3.9116,-0.3302 5.0546,-1.1684 1.2192,-0.889 1.8796,-2.4384 1.8796,-4.318 0,-2.159 -0.8128,-3.8608 -2.2352,-4.699 -1.1684,-0.7112 -2.5908,-0.9906 -5.0038,-0.9906 h -5.1816 z m 1.8796,-9.2964 v -7.7724 h 2.667 c 2.159,0 3.5052,0.1778 4.2672,0.5588 1.1176,0.5588 1.7018,1.7526 1.7018,3.429 0,1.4478 -0.5842,2.6162 -1.5494,3.1496 -0.7874,0.4572 -1.8796,0.635 -3.6068,0.635 z m 22.27577,-9.8044 c -5.3848,0 -9.9314,4.3942 -9.9314,9.6012 0,5.461 4.4196,9.8298 9.9568,9.8298 5.4102,0 9.8806,-4.3942 9.8806,-9.7028 0,-5.3594 -4.4704,-9.7282 -9.906,-9.7282 z m 0,1.7272 c 4.3942,0 8.001,3.6322 8.001,8.0264 0,4.3434 -3.6322,7.9502 -7.9756,7.9502 -4.4704,0 -8.0518,-3.6068 -8.0518,-8.0518 0,-4.2926 3.683,-7.9248 8.0264,-7.9248 z" id="path55" aria-label="HIPO" />
               </g>
               <g id="g57" mask="url(#mask26-4)" style="fill:#806600" transform="translate(-54.866226,-118.34532)">
                  <circle style="fill:#806600;fill-opacity:1;stroke-width:10.5833" id="circle56" cx="139.92384" cy="224.59695" r="6.0495443" />
                  <path style="font-size:25.4px;line-height:1.25;font-family:'URW Gothic';fill:#806600;stroke-width:0.264583" d="m 92.246605,233.82106 h 1.8796 v -8.8138 h 9.728195 v 8.8138 h 1.8796 v -18.7706 h -1.8796 v 8.255 h -9.728195 v -8.255 h -1.8796 z m 17.729145,0 h 1.8796 v -18.7706 h -1.8796 z m 5.7404,0 h 1.8796 v -7.5946 h 3.6068 c 2.54,0 3.9116,-0.3302 5.0546,-1.1684 1.2192,-0.889 1.8796,-2.4384 1.8796,-4.318 0,-2.159 -0.8128,-3.8608 -2.2352,-4.699 -1.1684,-0.7112 -2.5908,-0.9906 -5.0038,-0.9906 h -5.1816 z m 1.8796,-9.2964 v -7.7724 h 2.667 c 2.159,0 3.5052,0.1778 4.2672,0.5588 1.1176,0.5588 1.7018,1.7526 1.7018,3.429 0,1.4478 -0.5842,2.6162 -1.5494,3.1496 -0.7874,0.4572 -1.8796,0.635 -3.6068,0.635 z m 22.27577,-9.8044 c -5.3848,0 -9.9314,4.3942 -9.9314,9.6012 0,5.461 4.4196,9.8298 9.9568,9.8298 5.4102,0 9.8806,-4.3942 9.8806,-9.7028 0,-5.3594 -4.4704,-9.7282 -9.906,-9.7282 z m 0,1.7272 c 4.3942,0 8.001,3.6322 8.001,8.0264 0,4.3434 -3.6322,7.9502 -7.9756,7.9502 -4.4704,0 -8.0518,-3.6068 -8.0518,-8.0518 0,-4.2926 3.683,-7.9248 8.0264,-7.9248 z" id="path56" aria-label="HIPO" />
               </g>
            </g>
            <g id="g1" transform="matrix(0.46085969,0,0,0.46085938,-11.318229,-8.1550832)">
               <rect style="fill:#9a832b;fill-opacity:1;stroke-width:2.9619" id="rect57" width="8.535326" height="22.329525" x="70.683105" y="24.076633" ry="3.4805424" transform="matrix(0.70710678,0.70710678,0.70710678,-0.70710678,0,0)" />
               <path id="path57" style="fill:#7b6600;fill-opacity:1;stroke-width:9.66736" d="m 96.855624,65.969665 c 4.650366,16.19142 -24.369386,13.50035 -42.662116,13.68195 -59.1756876,-8.62365 42.662116,-57.586034 42.662116,-13.68195 z" />
               <rect style="fill:#9a832b;fill-opacity:1;stroke-width:2.10106" id="rect58" width="8.535326" height="11.236134" x="-22.541004" y="46.966518" ry="3.1190596" transform="matrix(-0.70710678,0.70710678,0.70710678,0.70710678,0,0)" />
               <path id="path58" style="fill:#ffbc00;fill-opacity:1;stroke-width:10.5833" d="m 60.097039,21.307651 11.571339,3.70417 c 8.28958,2.65362 15.71111,7.00715 15.71111,15.71111 v 21.471484 c 0,8.70396 -7.00716,7.77361 -15.71111,7.77361 H 60.097039 c -8.70396,0 -15.711116,0.93035 -15.711116,-7.77361 V 37.018761 c 0,-8.70396 7.421536,-18.36474 15.711116,-15.71111 z" />
               <path id="path59" style="fill:#d4a100;fill-opacity:1;stroke-width:10.5833" d="m 40.270546,51.385071 c 30.442322,9.902214 34.545682,-2.78338 51.750568,-4.23333 8.673216,-0.73094 15.711106,7.00715 15.711106,15.711114 0,8.70396 -10.786496,22.88796 -15.711106,15.71111 -9.403396,-13.704 -34.500378,2.82222 -51.750568,4.23333 -8.674979,0.70964 -15.711112,-7.00715 -15.711112,-15.71111 0,-8.703964 7.43403,-18.403464 15.711112,-15.711114 z" />
               <circle style="fill:#5b4900;fill-opacity:1;stroke-width:13.7218" id="circle59" cx="92.530594" cy="62.558807" r="7.8435221" />
               <circle style="fill:#5b4900;fill-opacity:1;stroke-width:10.5833" id="circle60" cx="39.293362" cy="66.959778" r="6.0495443" />
               <circle style="fill:#806600;stroke-width:9.45023" id="circle61" cx="58.03381" cy="37.45298" r="5.4018707" />
               <circle style="fill:#806600;stroke-width:6.20135" id="circle62" cx="71.874519" cy="37.45298" r="3.5447705" />
               <path id="path64" style="fill:#d4ad39;fill-opacity:1;stroke-width:10.5833" d="m 37.223948,51.008661 c -6.96791,0.17188 -12.65969,8.549984 -12.65969,16.165944 0,1.83087 0.32726,3.61119 0.89968,5.28546 0.23751,-9.83147 9.839044,-19.883154 18.843824,-19.864534 -0.61015,-0.18655 -3.399784,-0.92585 -4.032324,-1.1316 -1.03463,-0.33655 -2.05608,-0.47983 -3.05149,-0.45527 z" />
               <path id="path67" style="fill:#997600;fill-opacity:1;stroke-width:10.5833" d="m 106.50468,56.644691 c -1.30982,10.861164 -7.325686,16.668484 -15.633306,20.482284 0.15399,0.15171 0.92197,1.07063 1.17425,1.49519 4.9246,7.17685 15.874566,-7.36228 15.711176,-15.71118 -0.0429,-2.18963 -0.44704,-4.318064 -1.25212,-6.266294 z" />
            </g>
         </g>
      </g>
   </g>
</svg>
